<svg stroke-miterlimit="10" style="fill-rule:nonzero;clip-rule:evenodd;stroke-linecap:round;stroke-linejoin:round" viewBox="0 0 841.995 595.35" xml:space="preserve" xmlns="http://www.w3.org/2000/svg" xmlns:vectornator="http://vectornator.io"><g vectornator:layerName="Layer 1" fill-rule="evenodd" stroke-width="10"><path d="M123.836 120.702h565.795v310.885H123.836V120.702Z" fill="#aecce3" stroke="#d6e5f0" stroke-opacity=".913"/><path d="M361.107 183.413h0c54.457 0 98.603 44.146 98.603 98.602h0c0 54.457-44.146 98.603-98.603 98.603h0c-54.457 0-98.603-44.146-98.603-98.603h0c0-54.456 44.146-98.602 98.603-98.602Z" fill="#a8c4d8" stroke="#000"/><path d="M580.131 156.965h50.32c16.078 0 29.112 13.034 29.112 29.112h0c0 16.078-13.034 29.112-29.112 29.112h-50.32c-16.078 0-29.112-13.034-29.112-29.112h0c0-16.078 13.034-29.112 29.112-29.112Z" fill="#cbe6f0" stroke="#000"/><path d="M628.599 173.445h1.293c6.518 0 11.802 5.284 11.802 11.802h0c0 6.517-5.284 11.801-11.802 11.801h-1.293c-6.518 0-11.802-5.284-11.802-11.801h0c0-6.518 5.284-11.802 11.802-11.802Z" fill="#e5e9f0" stroke="#000"/><path d="M363.257 212.327h0c38.967 0 70.555 31.127 70.555 69.524h0c0 38.397-31.588 69.524-70.555 69.524h0c-38.967 0-70.556-31.127-70.556-69.524h0c0-38.397 31.589-69.524 70.556-69.524Z" fill="#dfe9f8" stroke="#000"/></g></svg>